<svg xmlns="http://www.w3.org/2000/svg" width="512" height="512" viewBox="0 0 512 512">
  <defs>
    <linearGradient id="bg" x1="0" y1="0" x2="0" y2="1">
      <stop offset="0" stop-color="#1c1812"/><stop offset="1" stop-color="#0f0c08"/>
    </linearGradient>
    <radialGradient id="glow" cx="0.5" cy="0.46" r="0.5">
      <stop offset="0" stop-color="#e6b232" stop-opacity="0.40"/>
      <stop offset="0.55" stop-color="#0e6f69" stop-opacity="0.10"/>
      <stop offset="1" stop-color="#e6b232" stop-opacity="0"/>
    </radialGradient>
    <clipPath id="bgclip"><rect x="0" y="0" width="512" height="512" rx="104" ry="104"/></clipPath>
  </defs>
  <g clip-path="url(#bgclip)">
    <rect x="0" y="0" width="512" height="512" fill="url(#bg)"/>
    <rect x="0" y="0" width="512" height="512" fill="url(#glow)"/>
    <!-- moss base strip + ochre hairline (echo of the app header strip) -->
    <rect x="0" y="448" width="512" height="64" fill="#0e6f69"/>
    <rect x="0" y="446" width="512" height="2" fill="#b8882a" opacity="0.55"/>
    <g transform="translate(256,256) scale(1) translate(-256,-256)">
      <g fill="#f6efdd" opacity="0.34"><circle cx="454.0" cy="256.0" r="4.2"/><circle cx="427.5" cy="157.0" r="4.2"/><circle cx="355.0" cy="84.5" r="4.2"/><circle cx="256.0" cy="58.0" r="4.2"/><circle cx="157.0" cy="84.5" r="4.2"/><circle cx="84.5" cy="157.0" r="4.2"/><circle cx="58.0" cy="256.0" r="4.2"/><circle cx="84.5" cy="355.0" r="4.2"/><circle cx="157.0" cy="427.5" r="4.2"/><circle cx="256.0" cy="454.0" r="4.2"/><circle cx="355.0" cy="427.5" r="4.2"/><circle cx="427.5" cy="355.0" r="4.2"/></g><circle cx="256" cy="256" r="170" fill="none" stroke="#b8882a" stroke-width="1.6" opacity="0.22"/><g stroke="#e6b232" stroke-width="14" stroke-linecap="round"><line x1="282.0" y1="256.0" x2="406.0" y2="256.0"/><line x1="269.0" y1="233.5" x2="331.0" y2="126.1"/><line x1="243.0" y1="233.5" x2="181.0" y2="126.1"/><line x1="230.0" y1="256.0" x2="106.0" y2="256.0"/><line x1="243.0" y1="278.5" x2="181.0" y2="385.9"/><line x1="269.0" y1="278.5" x2="331.0" y2="385.9"/></g><g stroke="#f6efdd" stroke-width="10" stroke-linecap="round"><line x1="278.5" y1="243.0" x2="347.8" y2="203.0"/><line x1="256.0" y1="230.0" x2="256.0" y2="150.0"/><line x1="233.5" y1="243.0" x2="164.2" y2="203.0"/><line x1="233.5" y1="269.0" x2="164.2" y2="309.0"/><line x1="256.0" y1="282.0" x2="256.0" y2="362.0"/><line x1="278.5" y1="269.0" x2="347.8" y2="309.0"/></g><circle cx="256" cy="256" r="22" fill="none" stroke="#f6efdd" stroke-width="3" opacity="0.55"/><circle cx="256" cy="256" r="15" fill="#e6b232"/>
    </g>
  </g>
</svg>